{"glyphs":{":":{"x_min":0,"x_max":173,"ha":173,"o":""},"$":{"x_min":0,"x_max":400,"ha":400,"o":"m 227 -5 q 223 -6 223 -10 l 223 -87 q 223 -97 213 -97 l 207 -97 q 197 -97 197 -87 l 197 -12 q 197 -8 193 -8 q 129 -6 89 42 q 49 89 49 165 l 49 184 q 49 194 59 194 l 68 194 q 78 194 78 184 l 78 166 q 78 100 112 60 q 145 19 198 19 q 251 19 286 58 q 320 97 320 160 q 320 202 304 232 q 288 261 264 282 q 241 303 188 343 q 137 382 110 408 q 82 433 65 468 q 48 502 48 549 q 48 622 87 664 q 126 706 188 708 q 192 708 192 712 l 192 791 q 192 801 202 801 l 208 801 q 218 801 218 791 l 218 710 q 218 706 222 705 q 278 695 311 650 q 344 604 344 534 l 344 509 q 344 499 334 499 l 324 499 q 314 499 314 509 l 314 533 q 314 600 280 640 q 247 681 193 681 q 142 681 110 646 q 78 611 78 547 q 78 510 91 482 q 104 455 130 432 q 155 408 204 371 q 263 327 292 300 q 320 274 335 243 q 350 212 350 167 q 350 97 316 50 q 282 4 227 -5 z"},"?":{"x_min":0,"x_max":330,"ha":330,"o":"m 135 197 l 135 271 q 135 310 150 336 q 164 361 194 394 q 228 430 246 462 q 263 493 263 546 q 263 607 236 644 q 209 681 165 681 q 120 681 92 644 q 64 607 64 547 l 64 509 q 64 499 54 499 l 44 499 q 34 499 34 509 l 34 547 q 34 620 70 664 q 106 709 165 709 q 223 709 258 664 q 293 619 293 544 q 293 500 282 468 q 272 436 257 415 q 242 394 218 368 q 191 339 179 319 q 167 299 167 270 l 167 197 q 167 187 157 187 l 145 187 q 135 187 135 197 z m 109 47 q 109 66 121 78 q 133 90 152 90 q 170 90 182 78 q 194 66 194 47 q 194 29 182 17 q 170 5 152 5 q 133 5 121 17 q 109 29 109 47 z"},"<":{"x_min":0,"x_max":444,"ha":444,"o":"m 395 69 l 44 249 q 37 252 37 261 l 37 276 q 37 285 44 288 l 395 468 q 397 469 400 469 q 407 469 407 461 l 407 450 q 407 441 400 438 l 70 271 q 68 270 68 268 q 68 266 70 265 l 400 99 q 407 96 407 87 l 407 76 q 407 71 404 69 q 400 67 395 69 z"},"'":{"x_min":0,"x_max":89,"ha":89,"o":"m 31 515 l 27 687 q 27 697 37 697 l 50 697 q 60 697 60 687 l 56 515 q 56 505 46 505 l 41 505 q 31 505 31 515 z"},"=":{"x_min":0,"x_max":444,"ha":444,"o":""},"a":{"x_min":0,"x_max":392,"ha":392,"o":"m 331 343 l 331 10 q 331 0 321 0 l 311 0 q 301 0 301 10 l 301 55 q 301 58 299 58 q 297 59 296 56 q 277 24 245 8 q 213 -8 174 -8 q 122 -8 86 22 q 50 53 50 128 q 50 208 93 247 q 136 286 208 286 l 297 286 q 301 286 301 290 l 301 345 q 301 407 274 444 q 247 481 196 481 q 156 481 126 456 q 96 432 92 393 q 92 384 82 384 l 71 385 q 66 385 64 388 q 61 391 62 396 q 68 447 106 478 q 145 509 197 509 q 261 509 296 464 q 331 419 331 343 z m 301 144 l 301 255 q 301 259 297 259 l 209 259 q 150 259 115 226 q 80 193 80 129 q 80 74 107 47 q 134 20 178 20 q 228 20 264 52 q 301 84 301 144 z"},"L":{"x_min":0,"x_max":378,"ha":378,"o":"m 88 10 l 88 690 q 88 700 98 700 l 108 700 q 118 700 118 690 l 118 32 q 118 28 122 28 l 361 28 q 371 28 371 18 l 371 10 q 371 0 361 0 l 98 0 q 88 0 88 10 z"},"3":{"x_min":0,"x_max":392,"ha":392,"o":"m 327 206 q 327 145 315 101 q 285 -8 185 -8 q 133 -8 100 22 q 67 51 54 107 q 46 142 44 193 q 44 203 54 203 l 64 203 q 74 203 74 193 q 75 150 83 117 q 104 20 185 20 q 260 20 286 106 q 297 150 297 207 q 297 281 280 330 q 254 404 185 404 q 177 404 167 402 l 163 402 q 158 402 154 406 l 150 410 q 144 416 148 424 l 286 667 q 287 669 286 670 q 285 672 283 672 l 56 672 q 46 672 46 682 l 46 690 q 46 700 56 700 l 315 700 q 325 700 325 690 l 325 679 q 325 672 322 666 l 190 432 q 189 430 190 428 q 190 427 192 427 q 232 427 261 406 q 290 384 306 343 q 327 291 327 206 z"},";":{"x_min":0,"x_max":170,"ha":170,"o":"m 48 410 q 48 428 59 440 q 70 453 85 453 q 100 453 112 440 q 123 428 123 410 q 123 392 112 379 q 100 366 85 366 q 69 366 58 379 q 48 392 48 410 z m 49 -51 l 72 139 q 73 148 82 148 l 92 148 q 96 148 99 145 q 102 142 101 137 l 74 -53 q 73 -62 64 -62 l 59 -62 q 54 -62 51 -58 q 48 -55 49 -51 z"},"J":{"x_min":0,"x_max":410,"ha":410,"o":"m 27 150 l 27 242 q 27 252 37 252 l 47 252 q 57 252 57 242 l 57 149 q 57 91 90 56 q 122 20 175 20 q 227 20 260 56 q 292 91 292 149 l 292 690 q 292 700 302 700 l 312 700 q 322 700 322 690 l 322 150 q 322 79 282 36 q 241 -8 175 -8 q 108 -8 68 36 q 27 79 27 150 z"},"V":{"x_min":0,"x_max":411,"ha":411,"o":"m 188 9 l 43 689 l 43 691 q 43 700 52 700 l 63 700 q 73 700 74 691 l 204 66 q 205 63 206 63 q 207 63 208 66 l 338 691 q 340 700 349 700 l 359 700 q 370 700 368 689 l 223 9 q 222 0 212 0 l 199 0 q 190 0 188 9 z"},"\"":{"x_min":0,"x_max":170,"ha":170,"o":"m 31 508 l 27 682 q 27 692 37 692 l 49 692 q 59 692 59 682 l 56 508 q 56 498 46 498 l 41 498 q 31 498 31 508 z m 111 508 l 108 682 q 108 692 118 692 l 131 692 q 141 692 141 682 l 137 508 q 137 498 127 498 l 121 498 q 111 498 111 508 z"},"7":{"x_min":0,"x_max":342,"ha":342,"o":"m 114 11 l 288 668 q 289 669 288 670 q 286 672 284 672 l 60 672 q 56 672 56 668 l 56 626 q 56 616 46 616 l 39 616 q 29 616 29 626 l 29 690 q 29 700 39 700 l 311 700 q 321 700 321 690 l 321 678 q 321 676 319 666 l 146 9 q 144 0 135 0 l 123 0 q 118 0 116 3 q 113 6 114 11 z"},"S":{"x_min":0,"x_max":400,"ha":400,"o":"m 49 165 l 49 184 q 49 194 59 194 l 68 194 q 78 194 78 184 l 78 166 q 78 100 112 60 q 145 19 198 19 q 251 19 286 58 q 320 97 320 160 q 320 202 304 232 q 288 261 264 282 q 241 303 188 343 q 137 382 110 408 q 82 433 65 468 q 48 502 48 549 q 48 623 88 666 q 129 708 193 708 q 261 708 302 660 q 344 612 344 534 l 344 509 q 344 499 334 499 l 324 499 q 314 499 314 509 l 314 533 q 314 600 280 640 q 247 681 193 681 q 142 681 110 646 q 78 611 78 547 q 78 510 91 482 q 104 455 130 432 q 155 408 204 371 q 263 327 292 300 q 320 274 335 243 q 350 212 350 167 q 350 88 308 40 q 266 -8 199 -8 q 132 -8 90 40 q 49 87 49 165 z"},"}":{"x_min":0,"x_max":231,"ha":231,"o":"m 34 -106 q 24 -106 24 -96 l 24 -88 q 24 -78 34 -78 l 64 -78 q 95 -78 108 -59 q 122 -40 122 3 l 122 222 q 122 265 132 290 q 142 316 165 328 q 170 331 165 333 q 142 344 132 369 q 122 394 122 438 l 122 650 q 122 693 108 712 q 95 731 64 731 l 34 731 q 24 731 24 741 l 24 749 q 24 759 34 759 l 66 759 q 112 759 132 734 q 152 709 152 651 l 152 435 q 152 393 163 372 q 174 351 198 345 q 207 344 207 335 l 207 326 q 207 318 198 316 q 174 310 163 288 q 152 267 152 225 l 152 2 q 152 -56 132 -81 q 112 -106 66 -106 z"},"Z":{"x_min":0,"x_max":385,"ha":385,"o":"m 41 10 l 41 22 q 41 29 43 34 l 303 667 q 304 669 303 670 q 302 672 300 672 l 51 672 q 41 672 41 682 l 41 690 q 41 700 51 700 l 328 700 q 338 700 338 690 l 338 678 q 338 671 336 666 l 76 33 q 75 31 76 30 q 77 28 79 28 l 328 28 q 338 28 338 18 l 338 10 q 338 0 328 0 l 51 0 q 41 0 41 10 z"},"x":{"x_min":0,"x_max":338,"ha":338,"o":"m 26 12 l 153 247 q 155 250 153 253 l 26 489 l 24 494 q 24 497 26 499 q 29 501 33 501 l 46 501 q 55 501 58 494 l 167 280 q 168 278 170 278 q 172 278 173 280 l 281 494 q 284 501 293 501 l 305 501 q 310 501 312 498 q 314 494 312 489 l 187 253 q 186 250 187 247 l 312 12 q 313 10 313 7 q 313 0 305 0 l 293 0 q 284 0 281 7 l 173 221 q 172 223 170 223 q 168 223 167 221 l 58 7 q 55 0 46 0 l 34 0 q 28 0 26 4 q 23 7 26 12 z"},")":{"x_min":0,"x_max":169,"ha":169,"o":"m 99 759 q 133 684 154 568 q 174 453 174 333 q 174 209 152 90 q 131 -30 96 -105 q 93 -112 85 -112 l 77 -112 q 72 -112 70 -108 q 67 -105 69 -101 q 100 -24 120 94 q 139 212 139 331 q 139 449 120 564 q 100 679 69 755 q 68 756 68 759 q 68 762 70 764 q 73 766 77 766 l 88 766 q 96 766 99 759 z"},"&":{"x_min":0,"x_max":507,"ha":507,"o":"m 451 6 q 451 0 443 0 l 433 0 q 426 0 421 7 l 366 91 q 365 93 363 92 q 361 92 360 91 q 321 37 284 14 q 248 -8 200 -8 q 130 -8 89 33 q 48 74 48 148 q 48 218 81 268 q 114 318 175 375 q 178 376 176 380 q 138 438 121 470 q 104 501 98 522 q 93 542 93 569 q 93 633 126 670 q 160 708 214 708 q 268 708 302 671 q 336 634 336 573 q 336 513 306 469 q 276 425 218 371 q 215 368 217 365 l 290 253 l 359 148 q 360 147 362 147 q 364 147 365 148 l 400 205 l 416 233 q 420 242 430 236 l 437 231 q 444 225 440 218 q 403 153 381 121 q 380 118 381 115 l 449 12 q 451 10 451 6 z m 123 569 q 123 535 136 504 q 149 472 195 399 q 198 395 201 398 q 253 448 280 486 q 306 524 306 573 q 306 621 281 650 q 256 680 215 680 q 174 680 148 650 q 123 620 123 569 z m 345 117 q 347 120 345 123 l 292 203 l 242 279 l 197 346 q 196 351 192 347 q 137 295 108 250 q 79 205 79 146 q 79 87 111 54 q 143 20 200 20 q 243 20 276 42 q 308 63 345 117 z"},"_":{"x_min":0,"x_max":350,"ha":350,"o":"m 27 10 l 27 18 q 27 28 37 28 l 313 28 q 323 28 323 18 l 323 10 q 323 0 313 0 l 37 0 q 27 0 27 10 z"},"v":{"x_min":0,"x_max":345,"ha":345,"o":"m 156 9 l 30 490 l 29 493 q 29 501 39 501 l 52 501 q 62 501 63 492 l 171 55 q 172 52 173 52 q 174 52 175 55 l 283 492 q 285 501 294 501 l 307 501 q 318 501 315 490 l 192 9 q 191 0 181 0 l 167 0 q 158 0 156 9 z"},"O":{"x_min":0,"x_max":446,"ha":446,"o":"m 68 153 l 68 546 q 68 618 111 663 q 154 708 222 708 q 291 708 334 663 q 378 618 378 546 l 378 153 q 378 81 334 36 q 291 -8 222 -8 q 154 -8 111 36 q 68 81 68 153 z m 348 151 l 348 548 q 348 606 313 643 q 278 680 222 680 q 167 680 132 643 q 98 606 98 548 l 98 151 q 98 93 132 56 q 167 20 222 20 q 278 20 313 56 q 348 93 348 151 z"},"(":{"x_min":0,"x_max":169,"ha":169,"o":"m 70 -105 q 36 -30 16 86 q -5 201 -5 321 q -5 445 16 564 q 38 684 73 759 q 76 766 84 766 l 92 766 q 97 766 100 762 q 102 759 100 755 q 69 678 50 560 q 30 442 30 323 q 30 205 50 90 q 69 -25 100 -101 q 101 -102 101 -105 q 101 -108 98 -110 q 96 -112 92 -112 l 81 -112 q 73 -112 70 -105 z"},"C":{"x_min":0,"x_max":435,"ha":435,"o":"m 68 151 l 68 550 q 68 622 110 665 q 152 708 220 708 q 290 708 332 665 q 374 622 374 550 l 374 530 q 374 520 364 520 l 353 519 q 343 519 343 529 l 343 552 q 343 610 309 645 q 275 680 220 680 q 165 680 132 645 q 98 610 98 552 l 98 149 q 98 91 132 56 q 165 20 220 20 q 275 20 309 56 q 343 91 343 149 l 343 171 q 343 180 353 180 l 364 179 q 374 179 374 169 l 374 151 q 374 79 332 36 q 290 -8 220 -8 q 152 -8 110 36 q 68 79 68 151 z"},"W":{"x_min":0,"x_max":585,"ha":585,"o":"m 163 9 l 34 689 l 34 691 q 34 700 43 700 l 54 700 q 64 700 65 691 l 179 72 q 180 70 181 70 q 182 70 183 72 l 279 691 q 281 700 289 700 l 301 700 q 310 700 311 691 l 410 72 q 411 70 412 70 q 413 70 414 72 l 519 691 q 521 700 530 700 l 542 700 q 547 700 550 697 q 552 694 551 689 l 428 9 q 427 0 417 0 l 405 0 q 397 0 395 9 l 298 625 q 297 627 296 627 q 295 627 294 625 l 196 9 q 195 0 186 0 l 174 0 q 165 0 163 9 z"},"A":{"x_min":0,"x_max":367,"ha":367,"o":"m 325 9 l 295 148 q 295 150 294 151 q 292 152 290 152 l 77 152 q 75 152 74 151 q 72 150 72 148 l 42 9 q 41 0 31 0 l 21 0 q 16 0 14 3 q 11 6 12 11 l 165 691 q 167 700 176 700 l 190 700 q 199 700 201 691 l 355 11 l 355 9 q 355 0 346 0 l 336 0 q 327 0 325 9 z m 84 179 l 283 179 q 285 179 286 180 q 288 182 287 183 l 185 644 q 184 647 183 647 q 182 647 181 644 l 80 183 q 79 182 80 180 q 82 179 84 179 z"},"f":{"x_min":0,"x_max":264,"ha":264,"o":"m 122 548 l 122 505 q 122 501 126 501 l 214 501 q 224 501 224 491 l 224 485 q 224 475 214 475 l 126 475 q 122 475 122 471 l 122 10 q 122 0 112 0 l 102 0 q 92 0 92 10 l 92 471 q 92 475 88 475 l 43 475 q 33 475 33 485 l 33 491 q 33 501 43 501 l 88 501 q 92 501 92 505 l 92 549 q 92 630 116 670 q 141 709 202 709 l 217 709 q 227 709 227 699 l 227 692 q 227 682 217 682 l 203 682 q 156 682 139 650 q 122 617 122 548 z"},"Q":{"x_min":0,"x_max":433,"ha":433,"o":"m 365 546 l 365 154 q 365 87 330 44 q 295 0 236 -7 q 232 -7 232 -11 l 232 -115 q 232 -125 222 -125 l 211 -125 q 201 -125 201 -115 l 201 -11 q 201 -7 197 -7 q 139 0 104 44 q 68 88 68 154 l 68 546 q 68 618 110 663 q 151 708 217 708 q 283 708 324 663 q 365 618 365 546 z m 335 548 q 335 607 302 644 q 269 680 217 680 q 164 680 131 643 q 98 606 98 548 l 98 152 q 98 94 131 57 q 164 20 217 20 q 269 20 302 56 q 335 93 335 152 z"},"w":{"x_min":0,"x_max":520,"ha":520,"o":"m 133 9 l 29 490 l 29 492 q 29 501 38 501 l 48 501 q 58 501 59 492 l 148 51 q 149 48 150 48 q 151 48 152 51 l 242 492 q 244 501 253 501 l 264 501 q 274 501 275 492 l 366 51 q 367 48 368 48 q 369 48 370 51 l 461 492 q 463 501 472 501 l 482 501 q 487 501 490 498 q 492 495 491 490 l 385 9 q 384 0 374 0 l 362 0 q 353 0 351 9 l 260 438 q 259 441 258 441 q 257 441 256 438 l 168 9 q 167 0 157 0 l 144 0 q 135 0 133 9 z"},"-":{"x_min":0,"x_max":303,"ha":303,"o":"m 37 316 l 37 324 q 37 334 47 334 l 256 334 q 266 334 266 324 l 266 316 q 266 306 256 306 l 47 306 q 37 306 37 316 z"},"E":{"x_min":0,"x_max":424,"ha":424,"o":"m 366 672 l 122 672 q 118 672 118 668 l 118 368 q 118 364 122 364 l 282 364 q 292 364 292 354 l 292 347 q 292 337 282 337 l 122 337 q 118 337 118 333 l 118 32 q 118 28 122 28 l 366 28 q 376 28 376 18 l 376 10 q 376 0 366 0 l 98 0 q 88 0 88 10 l 88 690 q 88 700 98 700 l 366 700 q 376 700 376 690 l 376 682 q 376 672 366 672 z"},"s":{"x_min":0,"x_max":352,"ha":352,"o":"m 52 117 l 52 122 q 52 132 62 132 l 71 132 q 81 132 81 122 l 81 118 q 81 77 110 50 q 138 22 186 22 q 231 22 258 50 q 286 78 286 124 q 286 157 271 178 q 256 199 234 212 q 213 224 175 240 q 135 257 111 271 q 87 285 70 311 q 54 337 54 377 q 54 435 90 470 q 125 505 184 505 q 242 505 278 470 q 313 434 313 378 l 313 375 q 313 365 303 365 l 295 365 q 285 365 285 375 l 285 378 q 285 421 256 450 q 228 478 183 478 q 138 478 111 450 q 84 422 84 377 q 84 347 98 326 q 111 306 132 294 q 152 282 187 267 q 230 249 255 234 q 280 220 298 193 q 316 166 316 124 q 316 66 280 31 q 244 -4 185 -4 q 126 -4 89 30 q 52 65 52 117 z"},">":{"x_min":0,"x_max":444,"ha":444,"o":"m 44 68 q 37 68 37 76 l 37 87 q 37 96 44 99 l 374 265 q 376 266 376 268 q 376 270 374 271 l 44 438 q 37 441 37 450 l 37 461 q 37 466 40 468 q 44 470 49 468 l 400 288 q 407 285 407 276 l 407 261 q 407 252 400 249 l 49 69 q 47 68 44 68 z"},"l":{"x_min":0,"x_max":165,"ha":165,"o":"m 68 10 l 68 690 q 68 700 78 700 l 88 700 q 98 700 98 690 l 98 10 q 98 0 88 0 l 78 0 q 68 0 68 10 z"},"8":{"x_min":0,"x_max":412,"ha":412,"o":"m 270 373 q 304 355 323 316 q 347 267 347 191 q 347 138 334 94 q 318 45 285 18 q 252 -8 205 -8 q 160 -8 127 18 q 94 45 78 93 q 65 139 65 192 q 65 261 84 306 q 103 352 141 373 q 146 376 141 378 q 109 394 89 428 q 65 470 65 536 q 65 603 88 643 q 105 675 135 692 q 165 708 205 708 q 285 708 321 646 q 347 606 347 535 q 347 470 324 431 q 304 396 270 378 q 265 376 270 373 z m 205 390 q 238 390 262 405 q 285 420 299 447 q 318 483 318 536 q 318 594 295 631 q 265 681 205 681 q 143 681 114 627 q 94 590 94 534 q 94 480 115 441 q 144 390 205 390 z m 317 191 q 317 255 298 298 q 271 362 205 362 q 172 362 148 344 q 124 327 111 293 q 94 253 94 192 q 94 139 107 103 q 119 63 144 42 q 170 20 205 20 q 242 20 268 42 q 294 65 306 107 q 317 145 317 191 z"},"\\":{"x_min":0,"x_max":286,"ha":286,"o":"m 256 8 q 256 0 248 0 l 238 0 q 229 0 227 9 l 71 689 l 71 692 q 71 700 79 700 l 89 700 q 98 700 100 691 l 256 11 z"},"e":{"x_min":0,"x_max":391,"ha":391,"o":"m 327 244 l 95 244 q 91 244 91 240 l 91 137 q 91 85 121 52 q 151 20 199 20 q 238 20 266 43 q 294 66 303 104 q 306 113 314 113 l 324 113 q 329 113 332 110 q 334 106 333 101 q 324 52 288 22 q 251 -8 199 -8 q 138 -8 100 32 q 61 73 61 137 l 61 364 q 61 427 100 468 q 138 509 199 509 q 260 509 298 468 q 337 427 337 364 l 337 254 q 337 244 327 244 z m 91 364 l 91 274 q 91 270 95 270 l 303 270 q 307 270 307 274 l 307 364 q 307 416 277 448 q 247 481 199 481 q 151 481 121 448 q 91 416 91 364 z"},"b":{"x_min":0,"x_max":410,"ha":410,"o":"m 349 364 l 349 137 q 349 73 312 32 q 274 -8 214 -8 q 180 -8 153 7 q 126 22 109 49 q 107 51 106 51 q 104 51 104 48 l 104 10 q 104 0 94 0 l 84 0 q 74 0 74 10 l 74 690 q 74 700 84 700 l 94 700 q 104 700 104 690 l 104 452 q 104 449 106 448 q 107 448 108 451 q 126 479 153 494 q 180 509 214 509 q 274 509 312 468 q 349 428 349 364 z m 209 481 q 163 481 134 448 q 104 416 104 364 l 104 137 q 104 85 134 52 q 163 20 209 20 q 258 20 288 52 q 319 85 319 137 l 319 364 q 319 416 288 448 q 258 481 209 481 z"},"%":{"x_min":0,"x_max":790,"ha":790,"o":"m 88 577 q 88 613 106 644 q 123 674 153 692 q 183 710 219 710 q 254 710 284 692 q 314 674 331 644 q 348 613 348 577 q 348 541 331 510 q 314 479 284 461 q 254 443 219 443 q 183 443 153 461 q 123 479 106 510 q 88 541 88 577 z m 198 12 l 565 693 q 568 700 577 700 l 583 700 q 589 700 592 696 q 594 693 591 688 l 224 7 q 221 0 212 0 l 206 0 q 200 0 198 4 q 195 7 198 12 z m 323 577 q 323 622 292 654 q 262 685 219 685 q 175 685 144 654 q 113 622 113 577 q 113 531 144 500 q 175 468 219 468 q 262 468 292 500 q 323 532 323 577 z m 442 124 q 442 160 460 190 q 477 221 507 239 q 537 257 573 257 q 608 257 638 239 q 668 221 685 190 q 702 160 702 124 q 702 88 685 57 q 668 26 638 8 q 608 -10 573 -10 q 537 -10 507 8 q 477 26 460 57 q 442 88 442 124 z m 677 124 q 677 169 646 200 q 616 232 573 232 q 529 232 498 200 q 467 169 467 124 q 467 78 498 46 q 529 15 573 15 q 616 15 646 47 q 677 79 677 124 z"},"m":{"x_min":0,"x_max":632,"ha":632,"o":"m 564 347 l 564 10 q 564 0 554 0 l 545 0 q 535 0 535 10 l 535 344 q 535 406 508 443 q 480 480 436 480 q 390 480 362 444 q 334 407 334 345 l 334 10 q 334 0 324 0 l 314 0 q 304 0 304 10 l 304 344 q 304 406 277 443 q 250 480 207 480 q 160 480 132 444 q 104 408 104 345 l 104 10 q 104 0 94 0 l 84 0 q 74 0 74 10 l 74 491 q 74 501 84 501 l 94 501 q 104 501 104 491 l 104 446 q 104 443 106 442 q 108 442 109 445 q 125 475 153 492 q 181 508 214 508 q 253 508 281 486 q 309 464 323 423 q 325 417 328 424 q 343 466 374 487 q 404 508 444 508 q 498 508 531 464 q 564 421 564 347 z"},"#":{"x_min":0,"x_max":573,"ha":573,"o":"m 495 444 l 433 444 q 428 444 428 440 l 400 246 q 400 242 403 242 l 464 242 q 474 242 474 232 l 474 224 q 474 214 464 214 l 399 214 q 394 214 394 210 l 365 19 q 364 11 354 11 l 345 11 q 341 11 338 14 q 335 17 336 22 l 363 210 q 363 214 360 214 l 178 214 q 173 214 173 210 l 145 20 q 144 11 134 11 l 125 11 q 121 11 118 14 q 115 17 116 22 l 143 210 q 143 214 140 214 l 78 214 q 68 214 68 224 l 68 232 q 68 242 78 242 l 144 242 q 149 242 149 246 l 177 440 q 177 444 174 444 l 109 444 q 99 444 99 454 l 99 462 q 99 472 109 472 l 178 472 q 183 472 183 476 l 212 668 q 213 676 223 676 l 232 676 q 236 676 239 673 q 242 670 241 665 l 214 476 q 214 472 217 472 l 398 472 q 403 472 403 476 l 432 668 q 433 676 443 676 l 453 676 q 457 676 460 673 q 463 670 462 665 l 434 476 q 434 472 437 472 l 495 472 q 505 472 505 462 l 505 454 q 505 444 495 444 z m 369 246 l 397 440 q 397 444 394 444 l 213 444 q 208 444 208 440 l 180 246 q 180 242 183 242 l 364 242 q 369 242 369 246 z"},",":{"x_min":0,"x_max":158,"ha":158,"o":"m 43 -57 l 80 144 q 82 153 91 153 l 99 153 q 104 153 106 150 q 109 147 108 142 l 68 -59 q 67 -68 57 -68 l 52 -68 q 47 -68 44 -65 q 42 -62 43 -57 z"},"n":{"x_min":0,"x_max":411,"ha":411,"o":"m 343 357 l 343 10 q 343 0 333 0 l 323 0 q 313 0 313 10 l 313 353 q 313 413 286 446 q 260 480 211 480 q 162 480 133 444 q 104 408 104 345 l 104 10 q 104 0 94 0 l 84 0 q 74 0 74 10 l 74 491 q 74 501 84 501 l 94 501 q 104 501 104 491 l 104 443 q 104 440 106 440 q 108 440 109 443 q 125 474 154 491 q 182 508 218 508 q 277 508 310 468 q 343 428 343 357 z"},"h":{"x_min":0,"x_max":411,"ha":411,"o":"m 343 357 l 343 10 q 343 0 333 0 l 323 0 q 313 0 313 10 l 313 353 q 313 413 286 446 q 260 480 211 480 q 162 480 133 444 q 104 408 104 345 l 104 10 q 104 0 94 0 l 84 0 q 74 0 74 10 l 74 690 q 74 700 84 700 l 94 700 q 104 700 104 690 l 104 443 q 104 440 106 440 q 108 440 109 443 q 125 474 154 491 q 182 508 218 508 q 277 508 310 468 q 343 428 343 357 z"},"z":{"x_min":0,"x_max":353,"ha":353,"o":"m 42 10 l 42 21 q 42 27 45 34 l 277 468 q 279 473 275 473 l 55 473 q 45 473 45 483 l 45 491 q 45 501 55 501 l 305 501 q 315 501 315 491 l 315 480 q 315 475 312 467 l 79 33 q 77 28 81 28 l 303 28 q 313 28 313 18 l 313 10 q 313 0 303 0 l 52 0 q 42 0 42 10 z"},"B":{"x_min":0,"x_max":436,"ha":436,"o":"m 303 359 q 347 339 372 295 q 396 251 396 187 q 396 99 352 50 q 307 0 229 0 l 98 0 q 88 0 88 10 l 88 690 q 88 700 98 700 l 227 700 q 305 700 350 653 q 394 606 394 522 q 394 464 370 424 q 347 383 303 364 q 298 362 303 359 z m 118 668 l 118 380 q 118 376 122 376 l 227 376 q 291 376 328 414 q 364 453 364 521 q 364 592 328 632 q 292 672 227 672 l 122 672 q 118 672 118 668 z m 366 188 q 366 264 330 306 q 293 349 228 349 l 122 349 q 118 349 118 345 l 118 33 q 118 29 122 29 l 227 29 q 292 29 329 71 q 366 113 366 188 z"},"K":{"x_min":0,"x_max":429,"ha":429,"o":"m 88 10 l 88 690 q 88 700 98 700 l 108 700 q 118 700 118 690 l 118 325 q 118 322 120 322 q 122 321 123 324 l 353 693 q 358 700 365 700 l 379 700 q 385 700 387 696 q 389 693 386 688 l 226 428 q 223 425 225 422 l 404 12 l 405 8 q 405 0 396 0 l 382 0 q 374 0 371 8 l 204 392 q 203 396 199 392 l 119 272 q 118 271 118 267 l 118 10 q 118 0 108 0 l 98 0 q 88 0 88 10 z"},"R":{"x_min":0,"x_max":427,"ha":427,"o":"m 360 8 l 241 335 q 240 338 237 338 l 122 338 q 118 338 118 334 l 118 10 q 118 0 108 0 l 98 0 q 88 0 88 10 l 88 690 q 88 700 98 700 l 240 700 q 307 700 348 650 q 388 600 388 518 q 388 448 357 400 q 326 353 273 341 q 269 339 270 336 l 389 11 l 390 7 q 390 0 381 0 l 372 0 q 363 0 360 8 z m 118 668 l 118 369 q 118 365 122 365 l 239 365 q 293 365 326 407 q 358 449 358 518 q 358 587 326 630 q 293 672 239 672 l 122 672 q 118 672 118 668 z"},"T":{"x_min":0,"x_max":396,"ha":396,"o":"m 357 690 l 357 682 q 357 672 347 672 l 213 672 q 209 672 209 668 l 209 10 q 209 0 199 0 l 189 0 q 179 0 179 10 l 179 668 q 179 672 175 672 l 49 672 q 39 672 39 682 l 39 690 q 39 700 49 700 l 347 700 q 357 700 357 690 z"},"P":{"x_min":0,"x_max":429,"ha":429,"o":"m 388 518 q 388 436 348 386 q 307 336 241 336 l 122 336 q 118 336 118 332 l 118 10 q 118 0 108 0 l 98 0 q 88 0 88 10 l 88 692 q 88 702 98 702 l 240 702 q 307 702 348 652 q 388 601 388 518 z m 358 518 q 358 588 325 631 q 292 674 239 674 l 122 674 q 118 674 118 670 l 118 367 q 118 363 122 363 l 239 363 q 292 363 325 406 q 358 448 358 518 z"},"|":{"x_min":0,"x_max":119,"ha":119,"o":"m 44 -70 l 44 750 q 44 760 54 760 l 64 760 q 74 760 74 750 l 74 -70 q 74 -80 64 -80 l 54 -80 q 44 -80 44 -70 z"},"t":{"x_min":0,"x_max":253,"ha":253,"o":"m 209 475 l 124 475 q 120 475 120 471 l 120 126 q 120 71 138 50 q 157 28 197 28 l 208 28 q 218 28 218 18 l 218 10 q 218 0 208 0 l 193 0 q 142 0 116 26 q 89 53 89 124 l 89 471 q 89 475 85 475 l 44 475 q 34 475 34 485 l 34 491 q 34 501 44 501 l 85 501 q 89 501 89 505 l 89 617 q 89 627 99 627 l 110 627 q 120 627 120 617 l 120 505 q 120 501 124 501 l 209 501 q 219 501 219 491 l 219 485 q 219 475 209 475 z"},"M":{"x_min":0,"x_max":505,"ha":505,"o":"m 396 700 l 407 700 q 417 700 417 690 l 417 10 q 417 0 407 0 l 397 0 q 387 0 387 10 l 387 616 q 387 619 385 619 q 383 619 382 617 l 265 337 q 262 329 254 329 l 253 329 q 245 329 242 337 l 123 616 q 122 618 120 618 q 118 618 118 615 l 118 10 q 118 0 108 0 l 98 0 q 88 0 88 10 l 88 690 q 88 700 98 700 l 109 700 q 117 700 120 692 l 250 386 q 251 384 253 384 q 255 384 256 386 l 385 692 q 388 700 396 700 z"},"g":{"x_min":0,"x_max":397,"ha":397,"o":"m 315 501 l 326 501 q 336 501 336 491 l 336 2 q 336 -200 162 -200 q 150 -200 150 -190 l 150 -183 q 150 -173 160 -173 q 236 -173 270 -128 q 305 -83 305 3 l 305 50 q 305 53 304 54 q 302 54 300 52 q 283 24 256 8 q 229 -7 195 -7 q 135 -7 98 33 q 61 73 61 137 l 61 364 q 61 428 98 468 q 135 509 195 509 q 230 509 257 494 q 284 478 300 450 q 302 448 304 448 q 305 449 305 452 l 305 491 q 305 501 315 501 z m 305 138 l 305 364 q 305 416 276 448 q 246 481 200 481 q 152 481 122 448 q 91 416 91 364 l 91 138 q 91 86 122 54 q 152 21 200 21 q 246 21 276 54 q 305 86 305 138 z"},"j":{"x_min":0,"x_max":190,"ha":190,"o":"m 47 656 q 47 674 59 686 q 71 698 89 698 q 108 698 120 686 q 132 674 132 656 q 132 637 120 625 q 108 613 89 613 q 71 613 59 625 q 47 637 47 656 z m -14 -201 l -14 -193 q -14 -183 -4 -183 q 34 -179 54 -150 q 74 -120 74 -69 l 74 491 q 74 501 84 501 l 94 501 q 104 501 104 491 l 104 -69 q 104 -134 77 -170 q 50 -207 -4 -211 q -14 -211 -14 -201 z"},"i":{"x_min":0,"x_max":201,"ha":201,"o":"m 58 656 q 58 674 70 686 q 82 698 101 698 q 119 698 131 686 q 143 674 143 656 q 143 637 131 625 q 119 613 101 613 q 82 613 70 625 q 58 637 58 656 z m 86 10 l 86 491 q 86 501 96 501 l 106 501 q 116 501 116 491 l 116 10 q 116 0 106 0 l 96 0 q 86 0 86 10 z"},"y":{"x_min":0,"x_max":335,"ha":335,"o":"m 41 -190 l 41 -183 q 41 -173 51 -173 l 52 -173 q 81 -172 96 -159 q 112 -146 123 -112 q 134 -79 152 -3 q 153 -1 152 0 q 152 2 152 3 l 23 490 l 22 493 q 22 501 32 501 l 43 501 q 53 501 54 492 l 166 47 q 167 44 168 44 q 169 44 170 47 l 281 492 q 283 501 292 501 l 303 501 q 308 501 310 498 q 313 495 312 490 l 169 -59 q 152 -121 138 -150 q 123 -180 104 -190 q 85 -200 52 -200 l 47 -200 q 45 -200 43 -197 q 41 -194 41 -190 z"},"@":{"x_min":0,"x_max":764,"ha":764,"o":"m 704 320 q 704 304 700 266 q 688 175 644 124 q 600 72 535 72 q 502 72 478 86 q 454 100 443 125 q 441 130 438 125 q 425 99 400 84 q 376 70 349 70 q 309 70 284 95 q 260 120 260 160 l 261 173 l 281 331 q 286 376 316 404 q 345 433 388 433 q 410 433 428 424 q 445 414 455 396 q 456 394 458 394 q 460 395 460 397 l 463 419 q 464 428 473 428 l 480 428 q 485 428 488 424 q 491 421 490 417 l 461 197 q 460 191 460 181 q 460 143 482 120 q 503 97 540 97 q 591 97 626 140 q 661 184 671 264 q 675 300 675 316 q 675 393 643 450 q 611 507 554 538 q 496 568 419 568 q 338 568 267 528 q 196 487 150 414 q 103 341 91 247 q 88 222 88 197 q 88 117 120 58 q 151 -2 208 -34 q 264 -67 337 -67 q 391 -67 437 -53 q 483 -39 510 -18 q 513 -16 517 -16 q 521 -16 524 -20 l 527 -23 q 530 -26 530 -30 q 530 -34 526 -37 q 495 -61 444 -77 q 392 -93 333 -93 q 253 -93 191 -58 q 129 -23 95 42 q 61 107 61 192 q 61 218 64 246 q 77 348 128 427 q 179 506 256 550 q 334 593 424 593 q 508 593 572 560 q 635 526 670 464 q 704 403 704 320 z m 432 174 l 435 191 l 435 195 l 442 255 l 445 273 l 453 336 q 455 368 438 388 q 420 409 391 409 q 359 409 336 386 q 313 364 308 329 q 304 307 298 251 l 288 174 q 284 139 302 117 q 320 95 352 95 q 383 95 404 116 q 426 138 432 174 z"},".":{"x_min":0,"x_max":170,"ha":170,"o":""},"p":{"x_min":0,"x_max":416,"ha":416,"o":"m 355 364 l 355 137 q 355 73 318 32 q 281 -8 221 -8 q 187 -8 160 7 q 133 22 116 49 q 114 51 112 51 q 111 51 111 48 l 111 -189 q 111 -199 101 -199 l 91 -199 q 81 -199 81 -189 l 81 491 q 81 501 91 501 l 101 501 q 111 501 111 491 l 111 453 q 111 450 112 450 q 114 449 115 452 q 132 479 160 494 q 187 509 221 509 q 281 509 318 468 q 355 428 355 364 z m 216 481 q 170 481 140 448 q 111 416 111 364 l 111 137 q 111 85 140 52 q 170 20 216 20 q 264 20 295 52 q 326 85 326 137 l 326 364 q 326 416 295 448 q 264 481 216 481 z"},"X":{"x_min":0,"x_max":410,"ha":410,"o":"m 46 12 l 188 347 q 190 350 188 353 l 46 688 l 45 692 q 45 700 54 700 l 66 700 q 74 700 77 692 l 202 384 q 203 382 205 382 q 207 382 208 384 l 333 692 q 336 700 344 700 l 356 700 q 361 700 364 696 q 366 693 364 688 l 221 352 q 220 349 221 346 l 364 12 l 365 8 q 365 0 356 0 l 344 0 q 336 0 333 8 l 208 315 q 207 317 205 317 q 203 317 202 315 l 77 8 q 74 0 66 0 l 54 0 q 49 0 46 4 q 44 7 46 12 z"},"*":{"x_min":0,"x_max":360,"ha":360,"o":"m 167 403 l 167 542 q 167 544 166 545 q 164 546 162 545 l 48 474 l 43 472 q 38 472 34 478 l 32 482 q 30 486 30 488 q 30 494 35 496 l 150 567 q 152 568 152 570 q 152 572 150 573 l 35 644 q 27 649 32 658 l 34 662 q 40 672 48 666 l 162 595 q 164 594 166 595 q 167 596 167 598 l 167 737 q 167 747 177 747 l 183 747 q 193 747 193 737 l 193 598 q 193 596 194 595 q 196 594 198 595 l 312 666 l 317 668 q 322 668 326 662 l 328 658 q 330 654 330 652 q 330 647 325 644 l 210 573 q 209 572 209 570 q 209 568 210 567 l 325 496 q 333 491 328 482 l 326 478 q 320 468 312 474 l 198 545 q 196 546 194 545 q 193 544 193 542 l 193 403 q 193 393 183 393 l 177 393 q 167 393 167 403 z"},"Y":{"x_min":0,"x_max":395,"ha":395,"o":"m 183 10 l 183 332 q 183 336 182 337 l 45 688 l 44 692 q 44 700 53 700 l 64 700 q 72 700 75 692 l 195 370 q 196 367 198 367 q 200 367 201 370 l 320 692 q 323 700 331 700 l 342 700 q 347 700 350 696 q 352 693 350 688 l 214 337 q 213 336 213 332 l 213 10 q 213 0 203 0 l 193 0 q 183 0 183 10 z"},"c":{"x_min":0,"x_max":384,"ha":384,"o":"m 61 137 l 61 364 q 61 427 100 468 q 138 509 199 509 q 239 509 270 492 q 302 474 320 445 q 337 416 337 383 l 337 380 q 337 370 327 370 l 317 370 q 307 370 307 380 l 307 383 q 307 422 276 452 q 246 481 199 481 q 151 481 121 448 q 91 416 91 364 l 91 137 q 91 85 121 52 q 151 20 199 20 q 246 20 276 50 q 307 79 307 118 l 307 121 q 307 131 317 131 l 327 131 q 337 131 337 121 l 337 118 q 337 85 320 56 q 302 27 270 10 q 239 -8 199 -8 q 138 -8 100 32 q 61 73 61 137 z"},"!":{"x_min":0,"x_max":235,"ha":235,"o":"m 105 231 l 104 690 q 104 700 114 700 l 124 700 q 134 700 134 690 l 132 231 q 132 221 122 221 l 115 221 q 105 221 105 231 z m 75 47 q 75 66 87 78 q 99 90 118 90 q 136 90 148 78 q 160 66 160 47 q 160 29 148 17 q 136 5 118 5 q 99 5 87 17 q 75 29 75 47 z"},"/":{"x_min":0,"x_max":286,"ha":286,"o":"m 30 11 l 187 691 q 189 700 198 700 l 208 700 q 213 700 216 697 q 218 694 216 689 l 59 9 q 57 0 48 0 l 38 0 q 33 0 30 3 q 28 6 30 11 z"},"[":{"x_min":0,"x_max":278,"ha":278,"o":"m 24 -96 l 24 749 q 24 759 34 759 l 159 759 q 169 759 169 749 l 169 741 q 169 731 159 731 l 58 731 q 54 731 54 727 l 54 -74 q 54 -78 58 -78 l 160 -78 q 170 -78 170 -88 l 170 -96 q 170 -106 160 -106 l 34 -106 q 24 -106 24 -96 z"},"6":{"x_min":0,"x_max":392,"ha":392,"o":"m 348 211 q 348 163 341 128 q 331 61 296 26 q 262 -8 206 -8 q 154 -8 120 24 q 87 56 74 118 q 66 161 66 211 l 66 541 q 66 617 104 662 q 143 708 207 708 q 263 708 300 662 q 337 616 337 541 l 337 536 q 337 526 327 526 l 317 526 q 307 526 307 536 l 307 543 q 307 604 278 642 q 250 680 207 680 q 157 680 126 642 q 96 604 96 543 l 96 364 q 96 361 98 360 q 99 360 100 363 q 117 396 145 413 q 173 430 208 430 q 306 430 337 317 q 348 271 348 211 z m 318 211 q 318 270 306 312 q 284 402 206 402 q 128 402 105 307 q 96 272 96 211 q 96 159 103 124 q 126 20 206 20 q 293 20 312 132 q 318 167 318 211 z"},"r":{"x_min":0,"x_max":274,"ha":274,"o":"m 253 495 q 260 491 257 482 l 253 470 q 250 460 240 465 q 224 472 205 472 q 161 471 132 428 q 104 386 104 322 l 104 10 q 104 0 94 0 l 84 0 q 74 0 74 10 l 74 491 q 74 501 84 501 l 94 501 q 104 501 104 491 l 104 426 q 104 423 106 423 q 108 423 109 427 q 124 464 150 484 q 175 505 210 505 q 235 505 253 495 z"},"2":{"x_min":0,"x_max":380,"ha":380,"o":"m 89 28 l 336 28 q 346 28 346 18 l 346 10 q 346 0 336 0 l 58 0 q 48 0 48 10 l 48 21 q 48 28 51 34 l 123 161 l 221 337 q 291 461 291 542 q 291 604 261 642 q 231 680 182 680 q 135 680 106 642 q 77 604 78 542 l 78 508 q 78 498 68 498 l 57 498 q 47 498 47 508 l 47 543 q 48 617 86 662 q 123 708 183 708 q 245 708 283 662 q 321 616 321 542 q 321 449 250 322 l 87 33 q 86 31 86 30 q 87 28 89 28 z"},"{":{"x_min":0,"x_max":231,"ha":231,"o":"m 79 2 l 79 225 q 79 267 68 288 q 57 310 33 316 q 24 318 24 326 l 24 335 q 24 344 33 345 q 57 351 68 372 q 79 393 79 435 l 79 651 q 79 709 99 734 q 119 759 165 759 l 197 759 q 207 759 207 749 l 207 741 q 207 731 197 731 l 168 731 q 136 731 122 712 q 109 693 109 650 l 109 438 q 109 394 99 369 q 89 344 66 333 q 61 331 66 328 q 88 316 98 290 q 109 265 109 222 l 109 3 q 109 -40 122 -59 q 136 -78 168 -78 l 197 -78 q 207 -78 207 -88 l 207 -96 q 207 -106 197 -106 l 165 -106 q 119 -106 99 -81 q 79 -56 79 2 z"},"9":{"x_min":0,"x_max":385,"ha":385,"o":"m 319 489 l 319 159 q 319 83 280 38 q 241 -8 177 -8 q 121 -8 84 38 q 48 84 48 159 l 48 164 q 48 174 58 174 l 68 174 q 78 174 78 164 l 78 157 q 78 97 106 58 q 135 20 177 20 q 227 20 258 58 q 289 96 289 157 l 289 336 q 289 339 288 340 q 286 340 285 337 q 268 304 240 287 q 212 270 177 270 q 128 270 95 298 q 62 327 48 383 q 37 423 37 489 q 37 535 43 572 q 54 639 88 674 q 122 708 178 708 q 231 708 264 676 q 298 644 310 582 q 319 542 319 489 z m 279 393 q 289 432 289 489 q 289 536 281 576 q 260 680 178 680 q 93 680 72 568 q 67 530 67 489 q 67 432 78 388 q 101 298 178 298 q 256 298 279 393 z"}," ":{"x_min":0,"x_max":200,"ha":200,"o":""},"I":{"x_min":0,"x_max":206,"ha":206,"o":"m 88 10 l 88 690 q 88 700 98 700 l 108 700 q 118 700 118 690 l 118 10 q 118 0 108 0 l 98 0 q 88 0 88 10 z"},"H":{"x_min":0,"x_max":467,"ha":467,"o":"m 359 700 l 369 700 q 379 700 379 690 l 379 10 q 379 0 369 0 l 359 0 q 349 0 349 10 l 349 333 q 349 337 345 337 l 122 337 q 118 337 118 333 l 118 10 q 118 0 108 0 l 98 0 q 88 0 88 10 l 88 690 q 88 700 98 700 l 108 700 q 118 700 118 690 l 118 368 q 118 364 122 364 l 345 364 q 349 364 349 368 l 349 690 q 349 700 359 700 z"},"4":{"x_min":0,"x_max":375,"ha":375,"o":"m 348 218 l 348 210 q 348 200 338 200 l 309 200 q 305 200 305 196 l 305 10 q 305 0 295 0 l 285 0 q 275 0 275 10 l 275 196 q 275 200 271 200 l 37 200 q 27 200 27 210 l 27 220 q 27 224 29 232 l 188 692 q 191 700 200 700 l 212 700 q 223 700 220 689 l 62 233 q 61 231 62 230 q 63 228 65 228 l 271 228 q 275 228 275 232 l 275 412 q 275 422 285 422 l 295 422 q 305 422 305 412 l 305 232 q 305 228 309 228 l 338 228 q 348 228 348 218 z"},"~":{"x_min":0,"x_max":444,"ha":444,"o":"m 210 287 q 191 298 174 304 q 158 310 139 310 q 112 310 94 300 q 76 289 63 268 q 61 264 57 263 q 53 262 49 264 l 45 266 q 37 271 41 280 q 56 308 80 324 q 105 339 138 339 q 162 339 180 332 q 199 325 221 312 q 250 294 269 286 q 288 278 316 278 q 337 278 351 288 q 365 298 381 319 q 383 322 386 323 q 390 324 393 322 l 397 320 l 399 319 q 407 313 402 305 q 384 279 364 264 q 343 250 315 250 q 285 250 264 259 q 242 268 210 287 z"},"D":{"x_min":0,"x_max":459,"ha":459,"o":"m 88 10 l 88 690 q 88 700 98 700 l 235 700 q 304 700 344 652 q 385 603 385 519 l 385 181 q 385 97 344 48 q 304 0 235 0 l 98 0 q 88 0 88 10 z m 122 28 l 236 28 q 290 28 322 69 q 354 110 354 181 l 354 518 q 354 590 322 631 q 291 672 236 672 l 122 672 q 118 672 118 668 l 118 32 q 118 28 122 28 z"},"^":{"x_min":0,"x_max":381,"ha":381,"o":"m 41 324 l 172 692 q 175 700 184 700 l 197 700 q 206 700 209 692 l 340 324 l 341 320 q 341 313 332 313 l 324 313 q 315 313 312 321 l 193 663 q 192 665 190 665 q 188 665 187 663 l 69 321 q 66 313 57 313 l 49 313 q 38 313 41 324 z"},"0":{"x_min":0,"x_max":439,"ha":439,"o":"m 65 157 l 65 543 q 65 618 107 664 q 149 709 219 709 q 288 709 331 664 q 374 618 374 543 l 374 157 q 374 82 331 36 q 288 -9 219 -9 q 149 -9 107 36 q 65 82 65 157 z m 344 154 l 344 546 q 344 607 310 644 q 275 681 219 681 q 163 681 129 644 q 95 607 95 546 l 95 154 q 95 93 129 56 q 163 19 219 19 q 275 19 310 56 q 344 93 344 154 z"},"F":{"x_min":0,"x_max":394,"ha":394,"o":"m 364 672 l 122 672 q 118 672 118 668 l 118 368 q 118 364 122 364 l 281 364 q 291 364 291 354 l 291 347 q 291 337 281 337 l 122 337 q 118 337 118 333 l 118 10 q 118 0 108 0 l 98 0 q 88 0 88 10 l 88 690 q 88 700 98 700 l 364 700 q 374 700 374 690 l 374 682 q 374 672 364 672 z"},"`":{"x_min":0,"x_max":157,"ha":157,"o":""},"k":{"x_min":0,"x_max":379,"ha":379,"o":"m 74 10 l 74 690 q 74 700 84 700 l 94 700 q 104 700 104 690 l 104 248 q 104 246 106 246 q 108 245 109 247 l 293 495 q 297 501 306 501 l 318 501 q 324 501 326 497 q 328 493 324 489 l 230 363 q 228 360 229 358 l 344 11 l 345 7 q 345 0 336 0 l 325 0 q 316 0 313 8 l 210 330 q 209 336 204 331 l 106 199 q 104 197 104 194 l 104 10 q 104 0 94 0 l 84 0 q 74 0 74 10 z"},"u":{"x_min":0,"x_max":411,"ha":411,"o":"m 316 501 l 326 501 q 336 501 336 491 l 336 10 q 336 0 326 0 l 316 0 q 306 0 306 10 l 306 50 q 306 53 304 54 q 302 54 301 51 q 270 -7 196 -7 q 136 -7 102 30 q 68 66 68 138 l 68 491 q 68 501 78 501 l 88 501 q 98 501 98 491 l 98 145 q 98 83 124 52 q 151 21 200 21 q 249 21 278 57 q 306 93 306 156 l 306 491 q 306 501 316 501 z"},"]":{"x_min":0,"x_max":278,"ha":278,"o":"m 244 -106 l 118 -106 q 108 -106 108 -96 l 108 -88 q 108 -78 118 -78 l 220 -78 q 224 -78 224 -74 l 224 727 q 224 731 220 731 l 119 731 q 109 731 109 741 l 109 749 q 109 759 119 759 l 244 759 q 254 759 254 749 l 254 -96 q 254 -106 244 -106 z"},"U":{"x_min":0,"x_max":474,"ha":474,"o":"m 81 177 l 81 690 q 81 700 91 700 l 101 700 q 111 700 111 690 l 111 173 q 111 104 146 62 q 180 20 236 20 q 293 20 328 62 q 363 104 363 173 l 363 690 q 363 700 373 700 l 383 700 q 393 700 393 690 l 393 177 q 393 94 350 43 q 307 -8 236 -8 q 166 -8 124 43 q 81 94 81 177 z"},"o":{"x_min":0,"x_max":398,"ha":398,"o":"m 61 137 l 61 364 q 61 427 100 468 q 138 509 199 509 q 260 509 298 468 q 337 427 337 364 l 337 137 q 337 73 298 32 q 260 -8 199 -8 q 138 -8 100 32 q 61 73 61 137 z m 307 137 l 307 364 q 307 416 277 448 q 247 481 199 481 q 151 481 121 448 q 91 416 91 364 l 91 137 q 91 85 121 52 q 151 20 199 20 q 247 20 277 52 q 307 85 307 137 z"},"N":{"x_min":0,"x_max":481,"ha":481,"o":"m 374 700 l 384 700 q 394 700 394 690 l 394 10 q 394 0 384 0 l 370 0 q 362 0 359 8 l 123 618 q 122 621 120 620 q 118 620 118 617 l 118 10 q 118 0 108 0 l 98 0 q 88 0 88 10 l 88 690 q 88 700 98 700 l 111 700 q 119 700 122 692 l 359 80 q 360 77 362 78 q 364 78 364 81 l 364 690 q 364 700 374 700 z"},"+":{"x_min":0,"x_max":444,"ha":444,"o":"m 407 326 l 407 320 q 407 310 397 310 l 239 310 q 235 310 235 306 l 235 148 q 235 138 225 138 l 219 138 q 209 138 209 148 l 209 306 q 209 310 205 310 l 47 310 q 37 310 37 320 l 37 326 q 37 336 47 336 l 205 336 q 209 336 209 340 l 209 498 q 209 508 219 508 l 225 508 q 235 508 235 498 l 235 340 q 235 336 239 336 l 397 336 q 407 336 407 326 z"},"G":{"x_min":0,"x_max":441,"ha":441,"o":"m 68 146 l 68 554 q 68 624 110 666 q 152 708 220 708 q 289 708 331 666 q 373 623 373 553 l 373 508 q 373 498 363 498 l 353 498 q 343 498 343 508 l 343 555 q 343 611 309 646 q 275 680 220 680 q 165 680 132 646 q 98 611 98 555 l 98 145 q 98 89 132 54 q 165 20 220 20 q 275 20 309 54 q 343 89 343 145 l 343 304 q 343 308 339 308 l 236 308 q 226 308 226 318 l 226 325 q 226 335 236 335 l 363 335 q 373 335 373 325 l 373 146 q 373 76 331 34 q 289 -8 220 -8 q 152 -8 110 34 q 68 76 68 146 z"},"q":{"x_min":0,"x_max":416,"ha":416,"o":"m 315 501 l 325 501 q 335 501 335 491 l 335 -189 q 335 -199 325 -199 l 315 -199 q 305 -199 305 -189 l 305 47 q 305 50 304 50 q 302 50 300 48 q 283 21 256 6 q 230 -8 196 -8 q 136 -8 98 32 q 61 73 61 137 l 61 364 q 61 428 98 468 q 136 509 196 509 q 230 509 256 494 q 283 480 300 453 q 302 451 304 451 q 305 451 305 454 l 305 491 q 305 501 315 501 z m 305 137 l 305 364 q 305 416 276 448 q 246 481 200 481 q 152 481 122 448 q 91 416 91 364 l 91 137 q 91 85 122 52 q 152 20 200 20 q 246 20 276 52 q 305 85 305 137 z"},"d":{"x_min":0,"x_max":410,"ha":410,"o":"m 315 700 l 325 700 q 335 700 335 690 l 335 10 q 335 0 325 0 l 315 0 q 305 0 305 10 l 305 47 q 305 50 304 50 q 302 50 300 48 q 283 21 256 6 q 230 -8 196 -8 q 136 -8 98 32 q 61 73 61 137 l 61 364 q 61 428 98 468 q 136 509 196 509 q 229 509 256 494 q 283 480 300 453 q 302 451 304 451 q 305 451 305 454 l 305 690 q 305 700 315 700 z m 305 137 l 305 364 q 305 416 276 448 q 246 481 200 481 q 152 481 122 448 q 91 416 91 364 l 91 137 q 91 85 122 52 q 152 20 200 20 q 246 20 276 52 q 305 85 305 137 z"},"1":{"x_min":0,"x_max":239,"ha":239,"o":"m 144 700 l 157 700 q 167 700 167 690 l 167 10 q 167 0 157 0 l 147 0 q 137 0 137 10 l 137 656 q 137 658 136 659 q 134 660 132 659 l 29 609 q 27 608 24 608 q 18 608 16 614 l 13 621 q 12 622 12 625 q 12 632 18 635 l 131 697 q 136 700 144 700 z"},"5":{"x_min":0,"x_max":391,"ha":391,"o":"m 347 211 q 347 157 338 116 q 312 -8 205 -8 q 150 -8 116 24 q 81 57 70 121 l 67 151 l 67 153 q 67 161 76 161 l 86 161 q 96 161 97 151 q 97 146 98 138 q 99 129 100 123 q 121 20 205 20 q 284 20 307 116 q 317 155 317 211 q 317 271 304 318 q 278 401 205 401 q 119 401 98 314 q 95 305 87 305 l 76 305 q 66 305 66 315 l 66 690 q 66 700 76 700 l 315 700 q 325 700 325 690 l 325 682 q 325 672 315 672 l 100 672 q 96 672 96 668 l 95 373 q 95 370 97 370 q 99 369 100 372 q 116 400 144 414 q 172 429 209 429 q 303 429 333 327 q 347 279 347 211 z"}}}
